<mxfile host="65bd71144e">
    <diagram name="Page-1" id="LeWslAUA-OAwkC0P8kcN">
        <mxGraphModel dx="1086" dy="706" grid="1" gridSize="10" guides="1" tooltips="1" connect="1" arrows="1" fold="1" page="1" pageScale="1" pageWidth="850" pageHeight="1100" math="0" shadow="0">
            <root>
                <mxCell id="0"/>
                <mxCell id="1" parent="0"/>
                <mxCell id="b1hOTlJTzla-iwlL4JW6-1" value="Cliente" style="swimlane;fontStyle=1;align=center;verticalAlign=top;childLayout=stackLayout;horizontal=1;startSize=26;horizontalStack=0;resizeParent=1;resizeParentMax=0;resizeLast=0;collapsible=1;marginBottom=0;whiteSpace=wrap;html=1;" parent="1" vertex="1">
                    <mxGeometry x="170" y="270" width="160" height="124" as="geometry"/>
                </mxCell>
                <mxCell id="b1hOTlJTzla-iwlL4JW6-2" value="&lt;span class=&quot;hljs-operator&quot;&gt;-&lt;/span&gt; nombre: String&lt;br&gt;&lt;span class=&quot;hljs-operator&quot;&gt;-&lt;/span&gt;&amp;nbsp;id: &lt;span class=&quot;hljs-type&quot;&gt;int&lt;/span&gt;&amp;nbsp;&lt;br&gt;&lt;span class=&quot;hljs-operator&quot;&gt;-&lt;/span&gt; direccion: String&amp;nbsp;" style="text;strokeColor=none;fillColor=none;align=left;verticalAlign=top;spacingLeft=4;spacingRight=4;overflow=hidden;rotatable=0;points=[[0,0.5],[1,0.5]];portConstraint=eastwest;whiteSpace=wrap;html=1;" parent="b1hOTlJTzla-iwlL4JW6-1" vertex="1">
                    <mxGeometry y="26" width="160" height="64" as="geometry"/>
                </mxCell>
                <mxCell id="b1hOTlJTzla-iwlL4JW6-3" value="" style="line;strokeWidth=1;fillColor=none;align=left;verticalAlign=middle;spacingTop=-1;spacingLeft=3;spacingRight=3;rotatable=0;labelPosition=right;points=[];portConstraint=eastwest;strokeColor=inherit;" parent="b1hOTlJTzla-iwlL4JW6-1" vertex="1">
                    <mxGeometry y="90" width="160" height="8" as="geometry"/>
                </mxCell>
                <mxCell id="b1hOTlJTzla-iwlL4JW6-4" value="&lt;span class=&quot;hljs-operator&quot;&gt;+&lt;/span&gt; obtenerDatos(): String" style="text;strokeColor=none;fillColor=none;align=left;verticalAlign=top;spacingLeft=4;spacingRight=4;overflow=hidden;rotatable=0;points=[[0,0.5],[1,0.5]];portConstraint=eastwest;whiteSpace=wrap;html=1;" parent="b1hOTlJTzla-iwlL4JW6-1" vertex="1">
                    <mxGeometry y="98" width="160" height="26" as="geometry"/>
                </mxCell>
                <mxCell id="b1hOTlJTzla-iwlL4JW6-6" value="Cuenta" style="swimlane;fontStyle=1;align=center;verticalAlign=top;childLayout=stackLayout;horizontal=1;startSize=26;horizontalStack=0;resizeParent=1;resizeParentMax=0;resizeLast=0;collapsible=1;marginBottom=0;whiteSpace=wrap;html=1;" parent="1" vertex="1">
                    <mxGeometry x="400" y="220" width="200" height="150" as="geometry"/>
                </mxCell>
                <mxCell id="b1hOTlJTzla-iwlL4JW6-7" value="&lt;span class=&quot;hljs-operator&quot;&gt;-&lt;/span&gt; numero: &lt;span class=&quot;hljs-type&quot;&gt;int&lt;/span&gt;&lt;br&gt;&lt;span class=&quot;hljs-operator&quot;&gt;-&lt;/span&gt; saldo: &lt;span class=&quot;hljs-type&quot;&gt;float&lt;/span&gt;&lt;br&gt;&lt;span class=&quot;hljs-operator&quot;&gt;-&lt;/span&gt; titular: Cliente&amp;nbsp;" style="text;strokeColor=none;fillColor=none;align=left;verticalAlign=top;spacingLeft=4;spacingRight=4;overflow=hidden;rotatable=0;points=[[0,0.5],[1,0.5]];portConstraint=eastwest;whiteSpace=wrap;html=1;rounded=1;" parent="b1hOTlJTzla-iwlL4JW6-6" vertex="1">
                    <mxGeometry y="26" width="200" height="54" as="geometry"/>
                </mxCell>
                <mxCell id="b1hOTlJTzla-iwlL4JW6-8" value="" style="line;strokeWidth=1;fillColor=none;align=left;verticalAlign=middle;spacingTop=-1;spacingLeft=3;spacingRight=3;rotatable=0;labelPosition=right;points=[];portConstraint=eastwest;strokeColor=inherit;" parent="b1hOTlJTzla-iwlL4JW6-6" vertex="1">
                    <mxGeometry y="80" width="200" height="8" as="geometry"/>
                </mxCell>
                <mxCell id="b1hOTlJTzla-iwlL4JW6-9" value="&lt;span class=&quot;hljs-operator&quot;&gt;+&lt;/span&gt; depositar(&amp;nbsp;&lt;span class=&quot;hljs-type&quot;&gt;float&lt;/span&gt;):void&lt;br&gt;&lt;span class=&quot;hljs-operator&quot;&gt;+&lt;/span&gt; retirar(&amp;nbsp;&lt;span class=&quot;hljs-type&quot;&gt;float&lt;/span&gt;): void&lt;br&gt;&lt;span class=&quot;hljs-operator&quot;&gt;+&lt;/span&gt; consultarSaldo(): &lt;span class=&quot;hljs-type&quot;&gt;float&lt;/span&gt;&amp;nbsp;" style="text;strokeColor=none;fillColor=none;align=left;verticalAlign=top;spacingLeft=4;spacingRight=4;overflow=hidden;rotatable=0;points=[[0,0.5],[1,0.5]];portConstraint=eastwest;whiteSpace=wrap;html=1;" parent="b1hOTlJTzla-iwlL4JW6-6" vertex="1">
                    <mxGeometry y="88" width="200" height="62" as="geometry"/>
                </mxCell>
                <mxCell id="b1hOTlJTzla-iwlL4JW6-11" style="edgeStyle=orthogonalEdgeStyle;rounded=0;orthogonalLoop=1;jettySize=auto;html=1;endArrow=block;endFill=0;" parent="1" source="b1hOTlJTzla-iwlL4JW6-7" target="b1hOTlJTzla-iwlL4JW6-2" edge="1">
                    <mxGeometry relative="1" as="geometry"/>
                </mxCell>
                <mxCell id="b1hOTlJTzla-iwlL4JW6-12" value="1" style="edgeLabel;html=1;align=center;verticalAlign=middle;resizable=0;points=[];" parent="b1hOTlJTzla-iwlL4JW6-11" vertex="1" connectable="0">
                    <mxGeometry x="0.7048" y="1" relative="1" as="geometry">
                        <mxPoint as="offset"/>
                    </mxGeometry>
                </mxCell>
                <mxCell id="b1hOTlJTzla-iwlL4JW6-13" value="1" style="edgeLabel;html=1;align=center;verticalAlign=middle;resizable=0;points=[];" parent="b1hOTlJTzla-iwlL4JW6-11" vertex="1" connectable="0">
                    <mxGeometry x="-0.7048" y="-2" relative="1" as="geometry">
                        <mxPoint as="offset"/>
                    </mxGeometry>
                </mxCell>
                <mxCell id="b1hOTlJTzla-iwlL4JW6-14" value="Tarjeta" style="swimlane;fontStyle=1;align=center;verticalAlign=top;childLayout=stackLayout;horizontal=1;startSize=26;horizontalStack=0;resizeParent=1;resizeParentMax=0;resizeLast=0;collapsible=1;marginBottom=0;whiteSpace=wrap;html=1;" parent="1" vertex="1">
                    <mxGeometry x="660" y="420" width="190" height="180" as="geometry"/>
                </mxCell>
                <mxCell id="b1hOTlJTzla-iwlL4JW6-15" value="&lt;span class=&quot;hljs-operator&quot;&gt;-&lt;/span&gt; numero: String&amp;nbsp;&lt;br&gt;&lt;span class=&quot;hljs-operator&quot;&gt;-&lt;/span&gt;&amp;nbsp;pin: &lt;span class=&quot;hljs-type&quot;&gt;int&lt;/span&gt;&amp;nbsp;&lt;br&gt;&lt;span class=&quot;hljs-operator&quot;&gt;-&lt;/span&gt; intentos: &lt;span class=&quot;hljs-type&quot;&gt;int&lt;/span&gt;&amp;nbsp;&lt;br&gt;&lt;span class=&quot;hljs-operator&quot;&gt;-&lt;/span&gt; activa: boolean&lt;br&gt;&lt;span class=&quot;hljs-operator&quot;&gt;-&lt;/span&gt; limiteDiario: &lt;span class=&quot;hljs-type&quot;&gt;float&lt;/span&gt;&amp;nbsp;&lt;br&gt;&lt;span class=&quot;hljs-operator&quot;&gt;-&lt;/span&gt; cuentaAsociada: Cuenta&amp;nbsp;" style="text;strokeColor=none;fillColor=none;align=left;verticalAlign=top;spacingLeft=4;spacingRight=4;overflow=hidden;rotatable=0;points=[[0,0.5],[1,0.5]];portConstraint=eastwest;whiteSpace=wrap;html=1;" parent="b1hOTlJTzla-iwlL4JW6-14" vertex="1">
                    <mxGeometry y="26" width="190" height="104" as="geometry"/>
                </mxCell>
                <mxCell id="b1hOTlJTzla-iwlL4JW6-16" value="" style="line;strokeWidth=1;fillColor=none;align=left;verticalAlign=middle;spacingTop=-1;spacingLeft=3;spacingRight=3;rotatable=0;labelPosition=right;points=[];portConstraint=eastwest;strokeColor=inherit;" parent="b1hOTlJTzla-iwlL4JW6-14" vertex="1">
                    <mxGeometry y="130" width="190" height="8" as="geometry"/>
                </mxCell>
                <mxCell id="b1hOTlJTzla-iwlL4JW6-17" value="&lt;span class=&quot;hljs-operator&quot;&gt;+&lt;/span&gt; validarPin(&lt;span class=&quot;hljs-type&quot;&gt;int&lt;/span&gt;): boolean&lt;br&gt;&lt;span class=&quot;hljs-operator&quot;&gt;+&lt;/span&gt; bloquearTarjeta(): void" style="text;strokeColor=none;fillColor=none;align=left;verticalAlign=top;spacingLeft=4;spacingRight=4;overflow=hidden;rotatable=0;points=[[0,0.5],[1,0.5]];portConstraint=eastwest;whiteSpace=wrap;html=1;" parent="b1hOTlJTzla-iwlL4JW6-14" vertex="1">
                    <mxGeometry y="138" width="190" height="42" as="geometry"/>
                </mxCell>
                <mxCell id="b1hOTlJTzla-iwlL4JW6-18" style="edgeStyle=orthogonalEdgeStyle;rounded=0;orthogonalLoop=1;jettySize=auto;html=1;entryX=1.014;entryY=0.685;entryDx=0;entryDy=0;entryPerimeter=0;" parent="1" source="b1hOTlJTzla-iwlL4JW6-14" target="b1hOTlJTzla-iwlL4JW6-7" edge="1">
                    <mxGeometry relative="1" as="geometry"/>
                </mxCell>
                <mxCell id="b1hOTlJTzla-iwlL4JW6-19" value="1" style="edgeLabel;html=1;align=center;verticalAlign=middle;resizable=0;points=[];" parent="b1hOTlJTzla-iwlL4JW6-18" vertex="1" connectable="0">
                    <mxGeometry x="-0.7968" y="-1" relative="1" as="geometry">
                        <mxPoint as="offset"/>
                    </mxGeometry>
                </mxCell>
                <mxCell id="b1hOTlJTzla-iwlL4JW6-20" value="1" style="edgeLabel;html=1;align=center;verticalAlign=middle;resizable=0;points=[];" parent="b1hOTlJTzla-iwlL4JW6-18" vertex="1" connectable="0">
                    <mxGeometry x="0.7881" y="1" relative="1" as="geometry">
                        <mxPoint as="offset"/>
                    </mxGeometry>
                </mxCell>
                <mxCell id="b1hOTlJTzla-iwlL4JW6-21" value="CajeroAutomatico" style="swimlane;fontStyle=1;align=center;verticalAlign=top;childLayout=stackLayout;horizontal=1;startSize=26;horizontalStack=0;resizeParent=1;resizeParentMax=0;resizeLast=0;collapsible=1;marginBottom=0;whiteSpace=wrap;html=1;" parent="1" vertex="1">
                    <mxGeometry x="300" y="520" width="230" height="160" as="geometry"/>
                </mxCell>
                <mxCell id="b1hOTlJTzla-iwlL4JW6-22" value="- efectivoDisponible: float" style="text;strokeColor=none;fillColor=none;align=left;verticalAlign=top;spacingLeft=4;spacingRight=4;overflow=hidden;rotatable=0;points=[[0,0.5],[1,0.5]];portConstraint=eastwest;whiteSpace=wrap;html=1;" parent="b1hOTlJTzla-iwlL4JW6-21" vertex="1">
                    <mxGeometry y="26" width="230" height="26" as="geometry"/>
                </mxCell>
                <mxCell id="b1hOTlJTzla-iwlL4JW6-23" value="" style="line;strokeWidth=1;fillColor=none;align=left;verticalAlign=middle;spacingTop=-1;spacingLeft=3;spacingRight=3;rotatable=0;labelPosition=right;points=[];portConstraint=eastwest;strokeColor=inherit;" parent="b1hOTlJTzla-iwlL4JW6-21" vertex="1">
                    <mxGeometry y="52" width="230" height="8" as="geometry"/>
                </mxCell>
                <mxCell id="b1hOTlJTzla-iwlL4JW6-24" value="&lt;span class=&quot;hljs-operator&quot;&gt;+&lt;/span&gt; ingresarTarjeta(Tarjeta): void&lt;br&gt;&lt;span class=&quot;hljs-operator&quot;&gt;+&lt;/span&gt; retirarEfectivo(&lt;span class=&quot;hljs-type&quot;&gt;float&lt;/span&gt;):void&lt;br&gt;&lt;span class=&quot;hljs-operator&quot;&gt;+&lt;/span&gt; depositar(&amp;nbsp;&lt;span class=&quot;hljs-type&quot;&gt;float&lt;/span&gt;):void&lt;br&gt;+&amp;nbsp;consultarSaldo(): &lt;span class=&quot;hljs-type&quot;&gt;float&lt;/span&gt;" style="text;strokeColor=none;fillColor=none;align=left;verticalAlign=top;spacingLeft=4;spacingRight=4;overflow=hidden;rotatable=0;points=[[0,0.5],[1,0.5]];portConstraint=eastwest;whiteSpace=wrap;html=1;" parent="b1hOTlJTzla-iwlL4JW6-21" vertex="1">
                    <mxGeometry y="60" width="230" height="100" as="geometry"/>
                </mxCell>
                <mxCell id="b1hOTlJTzla-iwlL4JW6-25" style="edgeStyle=orthogonalEdgeStyle;rounded=0;orthogonalLoop=1;jettySize=auto;html=1;entryX=-0.004;entryY=0.294;entryDx=0;entryDy=0;entryPerimeter=0;" parent="1" source="b1hOTlJTzla-iwlL4JW6-21" target="b1hOTlJTzla-iwlL4JW6-15" edge="1">
                    <mxGeometry relative="1" as="geometry"/>
                </mxCell>
                <mxCell id="b1hOTlJTzla-iwlL4JW6-26" value="1" style="text;html=1;align=center;verticalAlign=middle;resizable=0;points=[];autosize=1;strokeColor=none;fillColor=none;" parent="1" vertex="1">
                    <mxGeometry x="535" y="578" width="30" height="30" as="geometry"/>
                </mxCell>
                <mxCell id="b1hOTlJTzla-iwlL4JW6-27" value="1" style="text;html=1;align=center;verticalAlign=middle;resizable=0;points=[];autosize=1;strokeColor=none;fillColor=none;" parent="1" vertex="1">
                    <mxGeometry x="615" y="468" width="30" height="30" as="geometry"/>
                </mxCell>
            </root>
        </mxGraphModel>
    </diagram>
</mxfile>